<?xml version="1.0" standalone="yes"?>
<svg xmlns="http://www.w3.org/2000/svg" width="194" height="269">
<path style="fill:#ffffff; stroke:none;" d="M0 0L0 175L1 175C1.52563 149.534 17.0498 129.978 29 109C1.56692 90.8517 -2.26825 40.9961 31 25.9043C40.4855 21.6013 50.2031 22.979 60 25C67.4297 11.6707 81.4668 1.67728 97 1L67 0L0 0z"/>
<path style="fill:#93573d; stroke:none;" d="M60 25C47.634 21.525 33.3314 21.771 23.0008 30.3287C1.11254 48.4604 0.230955 96.1764 29 109C7.28169 136.386 -9.10875 177.277 4.46373 212C9.88349 225.865 18.9575 234.832 30 244.3C37.8 250.988 44.3596 257.987 54 262.127C98.9731 281.444 157.257 260.636 180.688 218C197.126 188.089 193.071 155.866 174.485 128C167.408 117.39 154.764 108.242 150.702 96C148.336 88.8677 150.473 80.0735 150.617 72.7454C150.957 55.4013 149.364 35.4244 138.841 21C120.548 -4.07495 72.9029 -9.0321 60 25z"/>
<path style="fill:#ffffff; stroke:none;" d="M104 0L104 1C110.877 1.29984 117.162 3.61453 123 7.23227C146.586 21.8473 149.771 46.6335 150.305 71.9606C150.471 79.846 148.18 89.3997 150.702 97C153.772 106.252 162.173 112.594 167.985 120C177.199 131.741 184.609 144.596 188.702 159C203.339 210.512 152.792 267.571 101 268L101 269L194 269L194 115L193 115L192.999 123C192.845 145.346 173.45 118.357 167.961 113.285C163.601 109.258 152.7 102.116 154.083 95.0154C155.368 88.4104 168.697 85.0022 174 82.3696C181.321 78.7357 186.573 76.9145 194 81L194 0L104 0z"/>
<path style="fill:#513361; stroke:none;" d="M180 126L188 117L188 116L178 104C182.248 103.463 190.379 103.71 192.972 99.6968C196.72 93.8966 195.237 78.5391 187 78.0741C176.751 77.4954 182.166 87.8772 175.697 90.9668C172.628 92.4323 169.618 88.6238 167 87.6397C163.537 86.3378 158.896 88.3529 156.229 90.6489C152.459 93.8952 153.376 98.2463 155.854 102C160.616 109.214 172.332 122.261 180 126z"/>
<path style="fill:#bf7d43; stroke:none;" d="M166 86C174.111 95.955 178.619 90.2538 180 80L166 86M193 100L178 104L188 116L188 117C185.273 118.927 181.366 121.52 180.497 125C179.375 129.493 185.842 133.923 189.852 132.377C195.48 130.209 195.105 105.016 193 100M54 115.429C43.9652 116.821 34.7975 121.155 29.2716 130C15.8051 151.556 28.6056 183.732 57 180.696C73.8754 178.891 88.9424 163.278 88.9213 146C88.8998 128.387 71.4344 113.01 54 115.429z"/>
<path style="fill:#2d2121; stroke:none;" d="M57 133.639C33.3256 135.851 33.6458 173.858 59 170.814C81.692 168.09 80.5251 131.441 57 133.639z"/>
<path style="fill:#bf7d43; stroke:none;" d="M135 138.439C90.6091 145.429 102.777 208.569 146 202.571C175.174 198.523 190.453 159.672 162 142.479C154.147 137.734 143.912 137.036 135 138.439z"/>
<path style="fill:#2d2121; stroke:none;" d="M136 152.529C109.669 158.616 123.598 192.719 147 187.981C170.538 183.217 158.968 147.22 136 152.529z"/>
<path style="fill:#ffffff; stroke:none;" d="M0 194L0 269L84 269L84 268C54.8762 267.92 24.2979 246.899 9.87577 222C4.61092 212.91 4.10636 203.147 0 194z"/>
</svg>
